# xmcd
#
# Track frame offsets: 
#        150
#        19842
#        39685
#
# Disc length: 805 seconds
#
# Revision: 2
# Processed by: cddbd v1.5.2PL0 Copyright (c) Steve Scherf et al.
# Submitted via: ExactAudioCopy v1.1
#
DISCID=1e032303
DTITLE=Yellow Magic Orchestra - ポケットが虹でいっぱい TODT-3040
DYEAR=1993
DGENRE=ポップ (一般)
TTITLE0=ポケットが虹でいっぱい
TTITLE1=HI-TECH HIPPIES
TTITLE2=ポケットが虹でいっぱい (English Version)
EXTD=YEAR: 1993
EXTT0=
EXTT1=
EXTT2=
PLAYORDER=
